# xmcd CD database file
#
# Track frame offsets:
#	150
#	13122
#	30235
#	44165
#	54787
#	75485
#	86825
#	102880
#	121270
#	132440
#	154212
#	167882
#	181555
#	198215
#	216410
#	227522
#	244905
#	261105
#	271607
#
# Disc length: 3809 seconds
#
# Revision: 0
# Processed by: cddbd v1.4PL0 Copyright (c) Steve Scherf et al.
# Submitted via: CDex 1.40Release
#
DISCID=f40edf13
DTITLE=Latitude 22 - Give Your Attitude Some Latitude
DYEAR=2000
DGENRE=Blues
TTITLE0=No More Trouble
TTITLE1=You
TTITLE2=Razzle Boogie
TTITLE3=You're So Sensitive
TTITLE4=Didn't Mean To Treat You Mean
TTITLE5=Wrongest Man
TTITLE6=Mix Your Own
TTITLE7=Waitin' For You
TTITLE8=Go On, Walk
TTITLE9=Three Sides To The Story
TTITLE10=Nothin' New
TTITLE11=Life's Fine Print
TTITLE12=When Love Is Strong
TTITLE13=Blues On Arrival
TTITLE14=My Baby Left Me
TTITLE15=If You've Got A Dream
TTITLE16=Shine
TTITLE17=It Just Goes On
TTITLE18=The Big Picture
EXTD=YEAR: 2000 ID3G: 0
EXTT0=
EXTT1=
EXTT2=
EXTT3=
EXTT4=
EXTT5=
EXTT6=
EXTT7=
EXTT8=
EXTT9=
EXTT10=
EXTT11=
EXTT12=
EXTT13=
EXTT14=
EXTT15=
EXTT16=
EXTT17=
EXTT18=
PLAYORDER=
